<?xml version="1.0" standalone="no"?>
<!DOCTYPE svg PUBLIC "-//W3C//DTD SVG 20010904//EN"
 "http://www.w3.org/TR/2001/REC-SVG-20010904/DTD/svg10.dtd">
<svg version="1.0" xmlns="http://www.w3.org/2000/svg"
 width="76.000000pt" height="60.000000pt" viewBox="0 0 468.000000 288.000000"
 preserveAspectRatio="xMidYMid meet">

<g transform="translate(0.000000,328.000000) scale(0.100000,-0.100000)"
fill="#000000" stroke="none">
<path d="M3743 2838 c-175 -221 -321 -405 -324 -410 -9 -13 -338 22 -799 85
-204 28 -262 32 -440 31 -203 0 -207 -1 -340 -37 -214 -57 -350 -121 -523
-248 -44 -32 -86 -59 -92 -59 -37 0 -355 -373 -355 -416 0 -28 230 -135 415
-194 122 -39 228 -65 364 -89 164 -30 188 -28 231 16 79 81 225 157 358 187
225 50 216 49 385 42 89 -4 180 -10 201 -14 l39 -7 -91 -115 c-99 -125 -99
-121 -16 -133 l40 -7 105 121 c83 96 108 119 124 114 11 -3 61 -15 110 -26
182 -41 335 -82 540 -144 229 -70 320 -95 346 -95 9 0 27 9 40 19 l24 19 -53
75 c-28 42 -52 84 -52 95 0 26 45 46 150 67 139 27 231 54 293 87 63 34 117
88 117 118 0 33 -42 70 -130 113 -83 41 -85 43 -88 80 -5 61 48 136 277 392
79 88 102 135 65 135 -9 0 -63 -20 -120 -45 -215 -94 -335 -130 -521 -159
-139 -22 -383 -33 -383 -18 0 10 280 333 532 613 37 42 68 80 68 85 -1 10
-156 124 -170 124 -4 0 -152 -181 -327 -402z m437 274 c0 -4 -58 -74 -122
-147 -5 -5 2 14 16 44 14 30 28 79 32 108 l6 52 34 -26 c19 -14 34 -28 34 -31z"/>
<path d="M4264 2897 c-122 -111 -281 -256 -354 -322 l-133 -120 38 -3 c20 -2
84 1 142 7 l106 11 69 57 c39 32 98 80 132 107 33 27 132 108 219 179 l159
130 -78 78 c-43 44 -79 79 -79 78 0 0 -99 -91 -221 -202z"/>
<path d="M2753 2830 c-13 -5 -32 -24 -43 -42 -29 -46 -21 -101 19 -142 59 -58
148 -36 182 46 14 35 0 95 -31 123 -22 20 -95 29 -127 15z"/>
<path d="M1317 2763 c-20 -5 -47 -53 -47 -83 0 -31 53 -80 85 -80 35 0 85 50
85 85 0 16 -12 38 -29 56 -28 28 -51 33 -94 22z"/>
<path d="M477 2033 c-18 -31 -32 -179 -31 -333 1 -155 4 -186 28 -275 48 -183
135 -335 266 -467 l77 -78 -28 -102 c-16 -57 -27 -108 -24 -115 5 -15 82 -54
172 -88 60 -23 267 -85 282 -85 3 0 7 37 7 83 3 190 129 373 319 463 99 47
174 64 285 64 123 0 205 -20 309 -76 98 -52 90 -55 171 62 64 92 111 194 145
309 31 108 31 111 -1 86 -53 -42 -148 -62 -328 -72 -93 -4 -172 -6 -175 -4 -4
2 -60 11 -126 20 -219 30 -455 89 -668 166 -131 47 -366 160 -452 216 -84 55
-179 146 -203 194 -11 22 -22 37 -25 32z"/>
<path d="M3165 1365 c-50 -49 -17 -145 49 -145 85 0 125 91 66 150 -29 29 -84
26 -115 -5z"/>
<path d="M1755 1043 c-219 -29 -419 -199 -464 -394 -15 -62 -13 -165 3 -226
46 -173 190 -312 381 -369 80 -24 238 -24 319 0 239 71 396 261 396 480 0 135
-41 234 -139 338 -121 129 -313 195 -496 171z m203 -160 c185 -62 303 -255
258 -421 -31 -112 -104 -196 -221 -252 -130 -62 -272 -51 -406 32 -150 92
-210 288 -136 439 51 106 167 194 287 219 57 11 158 4 218 -17z"/>
<path d="M1758 721 c-88 -28 -138 -94 -138 -180 0 -68 29 -123 82 -158 36 -25
51 -28 119 -28 70 0 81 3 121 30 155 108 87 326 -106 341 -28 2 -63 -1 -78 -5z"/>
</g>
</svg>
